<svg width="240" height="72" viewBox="0 0 240 72" fill="none" xmlns="http://www.w3.org/2000/svg" role="img" aria-labelledby="title desc">
  <title id="title">Elite Circle</title>
  <desc id="desc">Elite Circle platform logo</desc>
  <defs>
    <linearGradient id="eliteCircleGradient" x1="18" y1="10" x2="220" y2="68" gradientUnits="userSpaceOnUse">
      <stop stop-color="#67E8F9"/>
      <stop offset="0.52" stop-color="#2DD4BF"/>
      <stop offset="1" stop-color="#FBBF24"/>
    </linearGradient>
    <filter id="softShadow" x="-20%" y="-30%" width="140%" height="170%" color-interpolation-filters="sRGB">
      <feDropShadow dx="0" dy="8" stdDeviation="8" flood-color="#020617" flood-opacity="0.38"/>
    </filter>
  </defs>
  <rect x="2" y="2" width="236" height="68" rx="22" fill="#07111B" fill-opacity="0.86"/>
  <rect x="3.5" y="3.5" width="233" height="65" rx="20.5" stroke="url(#eliteCircleGradient)" stroke-opacity="0.72" stroke-width="3"/>
  <g filter="url(#softShadow)">
    <circle cx="38" cy="36" r="20" fill="url(#eliteCircleGradient)" fill-opacity="0.2"/>
    <circle cx="38" cy="36" r="14" stroke="url(#eliteCircleGradient)" stroke-width="4"/>
    <path d="M47 28.5C44.9 25.8 41.7 24.2 37.8 24.2C31.4 24.2 26.7 29 26.7 36C26.7 43 31.4 47.8 37.8 47.8C41.9 47.8 45.1 46.1 47.2 43.2L43.3 40.7C42 42.3 40.2 43.2 38 43.2C34.1 43.2 31.4 40.3 31.4 36C31.4 31.7 34.1 28.8 38 28.8C40.1 28.8 41.8 29.6 43.1 31.1L47 28.5Z" fill="#EFFFFB"/>
  </g>
  <text x="70" y="34" fill="#F8FAFC" font-family="Manrope, Arial, sans-serif" font-size="22" font-weight="800" letter-spacing="0">Elite</text>
  <text x="70" y="54" fill="#A7F3D0" font-family="Manrope, Arial, sans-serif" font-size="18" font-weight="700" letter-spacing="0">Circle</text>
  <circle cx="203" cy="24" r="3.5" fill="#FBBF24"/>
  <circle cx="216" cy="36" r="3.5" fill="#2DD4BF"/>
  <circle cx="203" cy="48" r="3.5" fill="#67E8F9"/>
  <path d="M203 24L216 36L203 48" stroke="#CFFAFE" stroke-opacity="0.72" stroke-width="2"/>
</svg>
